<?xml version="1.0" encoding="UTF-8"?>
<svg width="40px" height="40px" viewBox="0 0 40 40" version="1.1" xmlns="http://www.w3.org/2000/svg" xmlns:xlink="http://www.w3.org/1999/xlink">
    <!-- Generator: Sketch 42 (36781) - http://www.bohemiancoding.com/sketch -->
    <g id="Symbols" stroke="none" stroke-width="1" fill="none" fill-rule="evenodd">
        <g id="h-phone-40">
            <g id="phone">
                <path d="M40,20 C40,8.95459041 31.0458217,0 20,0 C8.95417834,0 0,8.95459041 0,20 C0,31.0458217 8.95417834,40 20,40 C31.0458217,40 40,31.0458217 40,20 L40,20 Z" id="stroke" fill="#333333"></path>
                <path d="M37.1309385,19.8734841 C37.1309385,10.5354054 29.4891232,2.96552632 20.0623053,2.96552632 C10.6354874,2.96552632 2.99367212,10.5354054 2.99367212,19.8734841 C2.99367212,29.2115628 10.6354874,36.7818421 20.0623053,36.7818421 C29.4891232,36.7818421 37.1309385,29.2115628 37.1309385,19.8734841" id="fill" fill="#DDDDDD"></path>
                <g transform="translate(7.000000, 7.000000)">
                    <polygon id="box" points="0 0 25.2906636 0 25.2906636 25.8357895 0 25.8357895"></polygon>
                    <path d="M6.97600806,11.6153404 C8.49344787,14.6618105 10.938212,17.1485053 13.9204028,18.7094175 L16.2387136,16.3411368 C16.5232336,16.0504842 16.9447446,15.9536 17.3135668,16.0827789 C18.4937978,16.4810807 19.7688687,16.6963789 21.075553,16.6963789 C21.6551307,16.6963789 22.1293307,17.1808 22.1293307,17.7728702 L22.1293307,21.5298246 C22.1293307,22.1218947 21.6551307,22.6063158 21.075553,22.6063158 C11.1805809,22.6063158 3.16133296,14.4142175 3.16133296,4.30596491 C3.16133296,3.71389474 3.6355329,3.22947368 4.21511061,3.22947368 L7.90333239,3.22947368 C8.4829101,3.22947368 8.95711004,3.71389474 8.95711004,4.30596491 C8.95711004,5.65157895 9.16786557,6.94336842 9.5577633,8.1490386 C9.67367884,8.52581053 9.58937663,8.94564211 9.29431889,9.24705965 L6.97600806,11.6153404 L6.97600806,11.6153404 Z" id="icon" fill="#333333"></path>
                </g>
            </g>
        </g>
    </g>
</svg>
