<?xml version="1.0" encoding="UTF-8"?>
<svg width="24px" height="24px" viewBox="0 0 24 24" version="1.1" xmlns="http://www.w3.org/2000/svg" xmlns:xlink="http://www.w3.org/1999/xlink">
    <!-- Generator: Sketch 42 (36781) - http://www.bohemiancoding.com/sketch -->
    <g id="Symbols" stroke="none" stroke-width="1" fill="none" fill-rule="evenodd">
        <g id="circlecheck-dusk-24">
            <g id="check">
                <polygon id="box" points="0 0 24 0 24 24 0 24"></polygon>
                <path d="M11.9375,22.9375 C5.86236775,22.9375 0.9375,18.0126322 0.9375,11.9375 C0.9375,5.86236775 5.86236775,0.9375 11.9375,0.9375 C18.0126322,0.9375 22.9375,5.86236775 22.9375,11.9375 C22.9375,18.0126322 18.0126322,22.9375 11.9375,22.9375 Z M11.9375,19.9375 C16.355778,19.9375 19.9375,16.355778 19.9375,11.9375 C19.9375,7.519222 16.355778,3.9375 11.9375,3.9375 C7.519222,3.9375 3.9375,7.519222 3.9375,11.9375 C3.9375,16.355778 7.519222,19.9375 11.9375,19.9375 Z M6.2925144,12.9560317 L8.12500878,11.1444079 L10.5736347,13.5590641 L15.7528305,8.4375 L17.5824856,10.2600727 L10.5742025,17.189611 L6.2925144,12.9560317 Z" id="icon" fill="#333333"></path>
            </g>
        </g>
    </g>
</svg>
